<?xml version="1.0" encoding="UTF-8" standalone="no"?>
<!-- Created with Inkscape (http://www.inkscape.org/) -->

<svg
   width="70.735mm"
   height="51.0983mm"
   version="1.1"
   viewBox="0 0 70.735 51.0983"
   id="svg176"
   sodipodi:docname="acc2021-image-1.svg"
   inkscape:version="1.1 (c68e22c387, 2021-05-23)"
   xmlns:inkscape="http://www.inkscape.org/namespaces/inkscape"
   xmlns:sodipodi="http://sodipodi.sourceforge.net/DTD/sodipodi-0.dtd"
   xmlns="http://www.w3.org/2000/svg"
   xmlns:svg="http://www.w3.org/2000/svg">
  <defs
     id="defs180" />
  <sodipodi:namedview
     id="namedview178"
     pagecolor="#505050"
     bordercolor="#eeeeee"
     borderopacity="1"
     inkscape:pageshadow="0"
     inkscape:pageopacity="0"
     inkscape:pagecheckerboard="0"
     inkscape:document-units="mm"
     showgrid="false"
     inkscape:zoom="5.9885193"
     inkscape:cx="133.75594"
     inkscape:cy="96.601509"
     inkscape:window-width="3774"
     inkscape:window-height="2126"
     inkscape:window-x="-11"
     inkscape:window-y="-11"
     inkscape:window-maximized="1"
     inkscape:current-layer="svg176" />
  <rect
     width="70.735"
     height="51.0983"
     fill="#fff"
     stroke="#f00"
     stroke-linecap="round"
     stroke-linejoin="round"
     stroke-width=".264999"
     style="paint-order:markers stroke fill;stroke:none"
     id="rect2" />
  <g
     transform="translate(-69.6326,-122.951)"
     fill="none"
     id="g34">
    <path
       d="m88.5759 146.269h12.5043c1.4373 0 2.59347 1.15618 2.59347 2.59209v4.7625c0 1.43592-1.15617 2.59347-2.59347 2.59347h-12.5043c-1.43592 0-2.59347-1.15755-2.59347-2.59347v-4.7625c0-1.43591 1.15755-2.59209 2.59347-2.59209z"
       stroke="#000002"
       stroke-linejoin="round"
       stroke-width=".411769"
       id="path4" />
    <path
       d="m96.6966 171.619c0 1.03215-0.83647 1.86862-1.86862 1.86862s-1.86862-0.83647-1.86862-1.86862 0.836469-1.86862 1.86862-1.86862c1.03215 0 1.86862 0.83647 1.86862 1.86862z"
       stroke="#000002"
       stroke-linejoin="round"
       stroke-width=".411632"
       id="path6" />
    <g
       stroke="#000"
       id="g32">
      <g
         stroke-width=".411632"
         id="g26">
        <path
           d="m91.5317 163.179v4.4304"
           stroke-linecap="square"
           id="path8" />
        <path
           d="m93.6898 158.919v4.15203h-4.31739v-4.15203"
           stroke-linecap="round"
           id="path10" />
        <path
           d="m91.5317 161.281v-5.09185"
           id="path12" />
        <path
           d="m90.0531 161.387h2.95589"
           stroke-linecap="round"
           id="path14" />
        <path
           d="m91.5317 167.609h6.59254"
           stroke-linecap="square"
           id="path16" />
        <path
           d="m98.1257 164.875c-0.158474-0.02481-0.363802-0.04961-0.518142-0.07442-0.15434-0.02342-0.303169-0.04823-0.44235-0.07303-0.139182-0.02481-0.268718-0.04961-0.384473-0.07304-0.115755-0.02618-0.216352-0.04961-0.300412-0.07441-0.085439-0.02481-0.152963-0.04961-0.201194-0.07442-0.048231-0.02342-0.07717-0.04961-0.085438-0.07303-0.009647-0.02481 0.001378-0.04961 0.033073-0.07442 0.031695-0.0248 0.082682-0.04823 0.151584-0.07441 0.068902-0.02343 0.155718-0.04823 0.259071-0.07304 0.101975-0.0248 0.220486-0.04961 0.350022-0.07303 0.129535-0.02481 0.271473-0.04961 0.420301-0.07442 0.148829-0.0248 0.304547-0.04961 0.463021-0.07441 0.157097-0.02343 0.316949-0.04823 0.475423-0.07304 0.157097-0.0248 0.311437-0.04961 0.458887-0.07441 0.146072-0.02343 0.285254-0.04823 0.413412-0.07304 0.126779-0.0248 0.241156-0.04961 0.340375-0.07303 0.099219-0.02619 0.181901-0.04961 0.246669-0.07442 0.064768-0.0248 0.111621-0.04961 0.137804-0.07441 0.026183-0.02343 0.033073-0.04961 0.019293-0.07304-0.013781-0.0248-0.046854-0.04961-0.099219-0.07441-0.053744-0.02481-0.125402-0.04823-0.213596-0.07304-0.088195-0.0248-0.194304-0.04961-0.312815-0.07441-0.118511-0.02481-0.250803-0.04961-0.392741-0.07304-0.141938-0.0248-0.292144-0.04961-0.446484-0.07441-0.155718-0.02481-0.315571-0.04961-0.474045-0.07442-0.158475-0.02342-0.318327-0.04823-0.47129-0.07303-0.152962-0.02481-0.299034-0.04961-0.43546-0.07304-0.136425-0.0248-0.263205-0.04961-0.376204-0.07441-0.112999-0.02481-0.21084-0.04961-0.290766-0.07304-0.079926-0.0248-0.143316-0.04961-0.187413-0.07441-0.044098-0.02481-0.067524-0.04961-0.071658-0.07442-0.004134-0.02342 0.012402-0.04823 0.048231-0.07303 0.035829-0.02481 0.090951-0.04961 0.163987-0.07442 0.073036-0.0248 0.163986-0.04823 0.271473-0.07303 0.106109-0.02481 0.227376-0.04961 0.359668-0.07442 0.132292-0.02342 0.275608-0.04961 0.427192-0.07303 0.148828-0.02481 0.307303-0.04961 0.464399-0.07442 0.158474-0.0248 0.318327-0.04823 0.476801-0.07441 0.155718-0.02343 0.310059-0.04823 0.453375-0.07304 0.146072-0.0248 0.282497-0.04961 0.406521-0.07303 0.124023-0.02481 0.235644-0.04961 0.330729-0.07442 0.095085-0.0248 0.175011-0.04961 0.235645-0.07303 0.059255-0.02481 0.100597-0.04961 0.122645-0.07442 0.022049-0.0248 0.023427-0.04823 0.005512-0.07441-0.017914-0.02343-0.056499-0.04823-0.114377-0.07304-0.056499-0.0248-0.132292-0.04961-0.22462-0.07303-0.093707-0.02619-0.201194-0.04961-0.323839-0.07442-0.121268-0.0248-0.256315-0.04961-0.401009-0.07441-0.143316-0.02343-0.294901-0.04961-0.451997-0.07304-0.155718-0.0248-0.315571-0.04961-0.474045-0.07441-0.158474-0.02481-0.316949-0.04823-0.468533-0.07442-0.150206-0.02342-0.296278-0.04823-0.429948-0.07303-0.135048-0.02481-0.257693-0.04961-0.367936-0.07304-0.107487-0.0248-0.201194-0.04961-0.278364-0.07441-0.075792-0.02481-0.135048-0.04961-0.173633-0.07304-0.039963-0.0248-0.059255-0.04961-0.057877-0.07441 0-0.02481 0.02067-0.04823 0.062011-0.07442 0.039964-0.02342 0.099219-0.04823 0.177767-0.07303 0.07717-0.02481 0.172255-0.04961 0.282498-0.07304 0.108865-0.02618 0.234267-0.04961 0.369314-0.07441 0.135048-0.02481 0.28112-0.04961 0.432705-0.07442 0.151584-0.02342 0.30868-0.04961 0.467154-0.07303 0.159853-0.02481 0.319705-0.04961 0.475424-0.07442 0.155718-0.0248 0.307302-0.04823 0.450618-0.07441 0.143316-0.02343 0.276986-0.04823 0.398253-0.07304 0.121268-0.0248 0.228755-0.04961 0.321083-0.07303 0.089573-0.02481 0.165365-0.04961 0.220486-0.07442 0.0565-0.0248 0.093707-0.04961 0.110243-0.07303 0.017915-0.02481 0.015159-0.04961-0.008268-0.07442-0.023427-0.0248-0.066146-0.04823-0.128158-0.07441-0.060633-0.02343-0.141938-0.04823-0.2384-0.07304-0.096463-0.0248-0.209462-0.04961-0.333486-0.07303-0.125401-0.02618-0.261827-0.04961-0.407899-0.07442-0.146072-0.0248-0.299034-0.04961-0.45613-0.07441-0.157097-0.02343-0.316949-0.04823-0.475424-0.07304-0.158474-0.0248-0.31557-0.04961-0.464399-0.07441-0.150206-0.02481-0.293522-0.04823-0.425813-0.07304-0.130914-0.0248-0.252181-0.04961-0.356912-0.07441-0.104731-0.02481-0.195682-0.04961-0.26734-0.07304-0.071658-0.0248-0.126779-0.04961-0.16123-0.07441-0.034451-0.02481-0.04961-0.04961-0.044097-0.07304 0.005512-0.0248 0.031694-0.04961 0.07717-0.07441 0.044097-0.02481 0.108865-0.04961 0.190169-0.07304 0.081304-0.0248 0.180523-0.04961 0.293522-0.07441 0.114377-0.02481 0.241157-0.04961 0.378961-0.07304 0.137804-0.0248 0.285254-0.04961 0.438216-0.07441 0.152962-0.02481 0.311437-0.04961 0.471289-0.07442 0.158475-0.02342 0.318327-0.04823 0.472667-0.07303 0.155719-0.02481 0.304547-0.04961 0.446485-0.07441 0.140559-0.02481 0.271473-0.04824 0.389984-0.07304 0.117134-0.02481 0.221865-0.04961 0.308681-0.07442 0.088194-0.02342 0.158474-0.0496 0.209462-0.07303 0.052365-0.02481 0.085438-0.04961 0.096463-0.07442 0.012402-0.0248 0.004134-0.04823-0.023427-0.07303-0.027561-0.02481-0.074414-0.04961-0.14056-0.07442-0.066146-0.0248-0.150206-0.0496-0.250803-0.07303-0.100597-0.02481-0.216352-0.04961-0.343132-0.07442-0.128157-0.0248-0.268717-0.0496-0.416167-0.07303-0.14745-0.02481-0.552593-0.05374-0.70969-0.07855"
           stroke-linecap="round"
           id="path18" />
        <path
           d="m98.0802 157.568v-1.38079"
           id="path20" />
        <path
           d="m98.1257 167.815v-2.93935"
           id="path22" />
        <path
           d="m94.828 169.749v-2.24758"
           id="path24" />
      </g>
      <path
         d="m94.7288 173.55c0.892969-0.01103 1.78456-0.02343 2.54799-0.11989s1.39457-0.27699 2.19108-0.6215c0.79513-0.34588 1.74873-0.853 2.60449-0.56224 0.85438 0.28939 1.60679 1.37529 2.3344 1.50344 0.7276 0.12678 1.42489-0.70555 2.16765-0.97703 0.74277-0.27009 1.53238 0.02205 2.322 0.3142"
         stroke-width=".274422"
         id="path28" />
      <path
         d="m85.9727 151.296h-8.02707v-4.08175"
         stroke-width=".274335"
         id="path30" />
    </g>
  </g>
  <g
     transform="translate(-69.6326,-122.951)"
     stroke="#000"
     id="g46">
    <path
       d="m77.9457 148.311 0.549837 0.54846-0.549837-1.91961-0.548459 1.91961z"
       fill-rule="evenodd"
       stroke-width=".146312"
       id="path36" />
    <path
       d="m93.1082 171.829h-15.1626v-4.08175"
       fill="none"
       stroke-width=".274422"
       id="path38" />
    <path
       d="m77.9457 168.845 0.549837 0.54845-0.549837-1.92098-0.548459 1.92098z"
       fill-rule="evenodd"
       stroke-width=".146359"
       id="path40" />
    <path
       d="m101.718 168.413h8.91866"
       fill="none"
       stroke-width=".274422"
       id="path42" />
    <path
       d="m109.539 168.413-0.54846 0.54984 1.92099-0.54984-1.92099-0.54846z"
       fill-rule="evenodd"
       stroke-width=".146359"
       id="path44" />
  </g>
  <g
     transform="translate(-69.6326,-122.951)"
     id="g54">
    <path
       d="m88.5304 123.305h12.5043c1.43591 0 2.59209 1.15618 2.59209 2.59347v4.76113c0 1.43729-1.15618 2.59346-2.59209 2.59346h-12.5043c-1.43729 0-2.59347-1.15617-2.59347-2.59346v-4.76113c0-1.43729 1.15617-2.59347 2.59347-2.59347z"
       fill="none"
       stroke="#000002"
       stroke-linejoin="round"
       stroke-width=".411632"
       id="path48" />
    <path
       d="m85.9273 128.101h-8.02707v-4.08175"
       fill="none"
       stroke="#000"
       stroke-width=".274422"
       id="path50" />
    <path
       d="m77.9002 125.116 0.54846 0.54983-0.54846-1.92098-0.548459 1.92098z"
       fill-rule="evenodd"
       stroke="#000"
       stroke-width=".146359"
       id="path52" />
  </g>
  <g
     transform="translate(-69.6326,-122.951)"
     fill="none"
     stroke-width=".411632"
     id="g78">
    <g
       stroke="#000"
       id="g70">
      <path
         d="m87.9599 141.795v4.44418"
         stroke-linecap="square"
         id="path56" />
      <path
         d="m90.1193 137.523v4.16444h-4.31739v-4.16444"
         stroke-linecap="round"
         id="path58" />
      <path
         d="m87.9599 139.891v-6.58013"
         id="path60" />
      <path
         d="m86.4826 139.998h2.95451"
         stroke-linecap="round"
         id="path62" />
      <path
         d="m94.5538 143.266c-0.159852-0.02343-0.36518-0.04961-0.518142-0.07304-0.154341-0.0248-0.303169-0.04961-0.442351-0.07441-0.139181-0.02481-0.268717-0.04961-0.384472-0.07442-0.115756-0.0248-0.216352-0.0496-0.30179-0.07441-0.084061-0.0248-0.151585-0.04823-0.199816-0.07304-0.048231-0.0248-0.07717-0.0496-0.086816-0.07441-0.008269-0.0248 0.002755-0.04961 0.033073-0.07441 0.031694-0.02343 0.082682-0.04961 0.151584-0.07304 0.07028-0.0248 0.157096-0.04961 0.259071-0.07441 0.103353-0.02481 0.220486-0.04961 0.3514-0.07442 0.129535-0.0248 0.271473-0.04823 0.420301-0.07441 0.148828-0.02481 0.304547-0.04823 0.461643-0.07304 0.158475-0.0248 0.318327-0.04961 0.476801-0.07441 0.157097-0.02481 0.311437-0.04961 0.458887-0.07442 0.146072-0.02342 0.285254-0.0496 0.412033-0.07303 0.128158-0.02481 0.242535-0.04961 0.341754-0.07442 0.099219-0.0248 0.181901-0.04961 0.246669-0.07441s0.111621-0.04823 0.137804-0.07441c0.026182-0.02343 0.033073-0.04824 0.019292-0.07304-0.01378-0.0248-0.048231-0.04961-0.100597-0.07441-0.052365-0.02481-0.124023-0.04961-0.212217-0.07442-0.089573-0.02342-0.194304-0.04961-0.314193-0.07303-0.118512-0.02481-0.250803-0.04961-0.391363-0.07442-0.141938-0.0248-0.292144-0.04961-0.447862-0.07441-0.154341-0.02481-0.314193-0.04823-0.474046-0.07304-0.158474-0.0248-0.316949-0.04961-0.468533-0.07441-0.152962-0.02481-0.300412-0.04961-0.438216-0.07442-0.136426-0.0248-0.263205-0.04961-0.374826-0.07441-0.112999-0.02343-0.21084-0.04961-0.290767-0.07304-0.081304-0.0248-0.143315-0.04961-0.187413-0.07441-0.044097-0.02481-0.067524-0.04961-0.071658-0.07441-0.005512-0.02481 0.011025-0.04824 0.046854-0.07304 0.035829-0.02481 0.092328-0.04961 0.165364-0.07441 0.073036-0.02481 0.163987-0.04961 0.270096-0.07442 0.106109-0.02343 0.228754-0.04961 0.361046-0.07303 0.132291-0.02481 0.275607-0.05099 0.425814-0.07442 0.150206-0.0248 0.307302-0.04961 0.465777-0.07441 0.158474-0.02481 0.319704-0.04961 0.475423-0.07442 0.157096-0.0248 0.310059-0.04823 0.454752-0.07303 0.146072-0.02481 0.282498-0.04961 0.406522-0.07442 0.124023-0.0248 0.235644-0.04961 0.330729-0.07441 0.095085-0.02343 0.173633-0.04961 0.234266-0.07304 0.060634-0.0248 0.101975-0.04961 0.124024-0.07441 0.022049-0.02481 0.023427-0.04961 0.005512-0.07442-0.017915-0.0248-0.0565-0.0496-0.114377-0.07303-0.0565-0.02618-0.13367-0.04961-0.225998-0.07442-0.092329-0.0248-0.201194-0.0496-0.323839-0.07441-0.121268-0.0248-0.256315-0.04961-0.399631-0.07441-0.143316-0.02343-0.296279-0.04961-0.451997-0.07304-0.155719-0.0248-0.315571-0.04961-0.475423-0.07441-0.158475-0.02481-0.315571-0.04961-0.467155-0.07442-0.151585-0.0248-0.296278-0.04823-0.431326-0.07303-0.13367-0.02619-0.257693-0.04961-0.366558-0.07442-0.108865-0.0248-0.202572-0.04961-0.278364-0.07441-0.07717-0.02481-0.135048-0.04961-0.175011-0.07442-0.038585-0.02342-0.057878-0.04961-0.057878-0.07303 0.001378-0.02481 0.022049-0.04961 0.062012-0.07442 0.039963-0.0248 0.100597-0.04961 0.177767-0.07441 0.07717-0.02481 0.173633-0.04823 0.282498-0.07304 0.110243-0.0248 0.234266-0.04961 0.369314-0.07441s0.28112-0.04961 0.432704-0.07441c0.151584-0.02481 0.310059-0.04961 0.468533-0.07442 0.158475-0.02343 0.318327-0.04961 0.475424-0.07303 0.155718-0.02481 0.307302-0.04962 0.44924-0.07442 0.143316-0.0248 0.276985-0.04961 0.399631-0.07303 0.119889-0.02619 0.228754-0.04961 0.319705-0.07442 0.09095-0.0248 0.165365-0.04961 0.221864-0.07441 0.0565-0.02481 0.093707-0.04961 0.110243-0.07442 0.017915-0.0248 0.01378-0.04961-0.009646-0.07441-0.022049-0.02343-0.064768-0.04823-0.12678-0.07304-0.062011-0.0248-0.141938-0.04961-0.2384-0.07441-0.096463-0.02481-0.209462-0.04961-0.333486-0.07304-0.125401-0.02618-0.263205-0.0496-0.407899-0.07441-0.146072-0.02619-0.299034-0.04961-0.45613-0.07441-0.157097-0.02481-0.318327-0.04961-0.476802-0.07442-0.157096-0.02343-0.314193-0.04961-0.464399-0.07441-0.150206-0.02343-0.292144-0.04824-0.424435-0.07304-0.132292-0.02618-0.252182-0.04961-0.35829-0.07441-0.104731-0.02481-0.194304-0.04961-0.26734-0.07304-0.071658-0.02618-0.125401-0.04961-0.159852-0.07579-0.034451-0.02343-0.04961-0.04823-0.044098-0.07304 0.005512-0.0248 0.030317-0.04961 0.075792-0.07441 0.045476-0.02343 0.108866-0.04961 0.191548-0.07304 0.081304-0.0248 0.180523-0.04961 0.293522-0.07441 0.112999-0.02481 0.239779-0.04961 0.378961-0.07442 0.136425-0.0248 0.283875-0.0496 0.436838-0.07441 0.152962-0.0248 0.312814-0.04823 0.471289-0.07304 0.158474-0.02618 0.318326-0.0496 0.472667-0.07441 0.155718-0.02481 0.305924-0.04961 0.446484-0.07441 0.14056-0.02343 0.272852-0.04823 0.389985-0.07442 0.118512-0.02343 0.221864-0.04823 0.310059-0.07303 0.088194-0.02481 0.158474-0.04961 0.209461-0.07304 0.052366-0.02618 0.084061-0.05099 0.096463-0.07441 0.012403-0.02619 0.004134-0.04962-0.023426-0.07579-0.027561-0.02343-0.075792-0.04824-0.141938-0.07304-0.066146-0.02481-0.150206-0.04961-0.250803-0.07442-0.099219-0.02342-0.214974-0.04823-0.343132-0.07303-0.128157-0.02481-0.267339-0.04961-0.414789-0.07442-0.147451-0.0248-0.552594-0.05236-0.70969-0.07855"
         stroke-linecap="round"
         id="path64" />
      <path
         d="m94.5083 135.935v-2.6665"
         id="path66" />
      <path
         d="m94.5538 146.215v-2.949"
         id="path68" />
    </g>
    <path
       d="m105.143 139.606c0 1.84933-1.49793 3.34725-3.34725 3.34725-1.84795 0-3.34726-1.49792-3.34726-3.34725s1.49931-3.34726 3.34726-3.34726c1.84932 0 3.34725 1.49793 3.34725 3.34726z"
       stroke="#000002"
       stroke-linejoin="round"
       id="path72" />
    <path
       d="m101.795 136.213v-3.08818"
       stroke="#000"
       id="path74" />
    <path
       d="m101.795 146.444v-3.48231"
       stroke="#000"
       id="path76" />
  </g>
  <g
     transform="translate(-69.6326,-122.951)"
     id="g170">
    <path
       d="m102.13 140.445c0.05787 0.21497 0.24804 0.35553 0.47129 0.35553 0.1819 0 0.30592-0.12402 0.3886-0.28939 0.09095-0.19017 0.1571-0.51263 0.1571-0.5209 0-0.05787-0.04134-0.05787-0.05788-0.05787-0.05788 0-0.05788 0.0248-0.07441 0.09922-0.07442 0.29765-0.17364 0.65319-0.39688 0.65319-0.10748 0-0.16536-0.06615-0.16536-0.23978 0-0.11576 0.06614-0.36381 0.10748-0.55397l0.14883-0.57051c0.01654-0.07442 0.06615-0.27285 0.09095-0.35554 0.02481-0.12402 0.07442-0.32246 0.07442-0.35553 0-0.09095-0.07442-0.14056-0.14883-0.14056-0.02481 0-0.16537 0.00827-0.20671 0.1819-0.09922 0.38861-0.33073 1.31465-0.39687 1.5875-0.00827 0.02481-0.21498 0.44649-0.60358 0.44649-0.27285 0-0.32246-0.23978-0.32246-0.42995 0-0.29766 0.14883-0.71107 0.28112-1.07487 0.06614-0.16537 0.09095-0.23978 0.09095-0.339 0-0.23151-0.16537-0.42995-0.42995-0.42995-0.50436 0-0.69453 0.76895-0.69453 0.81029 0 0.05788 0.04961 0.05788 0.05788 0.05788 0.05787 0 0.05787-0.01654 0.08268-0.09922 0.13229-0.45475 0.339-0.65319 0.53743-0.65319 0.04961 0 0.13229 0.00827 0.13229 0.17363 0 0.12402-0.05787 0.28112-0.09095 0.35553-0.19843 0.52917-0.30592 0.85163-0.30592 1.10795 0 0.50436 0.3638 0.63665 0.64492 0.63665 0.34727 0 0.53744-0.23978 0.62839-0.35553z"
       id="path80" />
    <path
       d="m89.8023 128.197c-0.016537 0.08269-0.049609 0.20671-0.049609 0.23151 0 0.09095 0.074414 0.14056 0.157096 0.14056 0.066146 0 0.157097-0.04134 0.198438-0.14882 0-0.00827 0.066145-0.25632 0.099218-0.38861l0.115756-0.47129c0.024804-0.12402 0.057877-0.23978 0.09095-0.35553 0.016537-0.09095 0.057878-0.24805 0.066146-0.26459 0.074414-0.16536 0.355534-0.64492 0.859896-0.64492 0.239778 0 0.28112 0.19844 0.28112 0.37207 0 0.13229-0.033073 0.28112-0.074415 0.43822l-0.148828 0.61185-0.107486 0.39687c-0.016537 0.10749-0.066146 0.28939-0.066146 0.31419 0 0.09095 0.074414 0.14056 0.148827 0.14056 0.165365 0 0.198438-0.13229 0.239779-0.29765 0.074415-0.29766 0.272852-1.0666 0.314193-1.27331 0.016536-0.06615 0.297656-0.7028 0.876432-0.7028 0.223242 0 0.28112 0.1819 0.28112 0.37207 0 0.29766-0.223242 0.90124-0.330729 1.18236-0.041341 0.12402-0.066146 0.1819-0.066146 0.28939 0 0.24804 0.181901 0.42994 0.429948 0.42994 0.496094 0 0.694531-0.76894 0.694531-0.81028 0-0.05788-0.049609-0.05788-0.066146-0.05788-0.049609 0-0.049609 0.01654-0.074413 0.09922-0.082683 0.28112-0.248048 0.65319-0.537436 0.65319-0.09095 0-0.132291-0.04961-0.132291-0.17363 0-0.1323 0.049609-0.25632 0.099219-0.37207 0.099218-0.28112 0.32246-0.8599 0.32246-1.16582 0-0.339-0.214973-0.56224-0.611848-0.56224-0.388607 0-0.661459 0.23151-0.859896 0.51263 0-0.06615-0.016537-0.24805-0.165365-0.37207-0.132291-0.11576-0.297656-0.14056-0.429948-0.14056-0.479557 0-0.735872 0.33899-0.826823 0.46302-0.024804-0.30593-0.248047-0.46302-0.487825-0.46302-0.239779 0-0.338997 0.2067-0.388607 0.29765-0.090951 0.19017-0.157096 0.4961-0.157096 0.51263 0 0.05788 0.049609 0.05788 0.057877 0.05788 0.057878 0 0.057878-0.00827 0.090951-0.12402 0.09095-0.37207 0.198437-0.62839 0.388607-0.62839 0.082682 0 0.157096 0.04134 0.157096 0.23978 0 0.11575-0.016537 0.17363-0.082682 0.44648z"
       id="path82" />
    <path
       d="m95.5556 128.073c-0.09095 0.0248-0.157096 0.09922-0.157096 0.17363 0 0.09095 0.074414 0.12403 0.124024 0.12403 0.041341 0 0.181901-0.02481 0.181901-0.21498 0-0.23978-0.264584-0.32246-0.496094-0.32246-0.570508 0-0.677995 0.42995-0.677995 0.53744 0 0.14056 0.082682 0.23151 0.132292 0.27285 0.09095 0.07441 0.157096 0.09095 0.413411 0.13229 0.082682 0.01654 0.314193 0.05788 0.314193 0.23978 0 0.06614-0.041341 0.2067-0.190169 0.29765-0.148828 0.08269-0.330729 0.08269-0.372071 0.08269-0.148828 0-0.355533-0.03308-0.446484-0.1571 0.124024-0.01654 0.206706-0.10749 0.206706-0.20671 0-0.09095-0.066146-0.14056-0.14056-0.14056-0.107487 0-0.214974 0.09096-0.214974 0.24805 0 0.22324 0.23151 0.35554 0.587044 0.35554 0.686263 0 0.810287-0.46303 0.810287-0.60359 0-0.33899-0.372071-0.40514-0.51263-0.42994-0.033073-0.00827-0.124024-0.02481-0.148829-0.03308-0.132291-0.0248-0.198437-0.09921-0.198437-0.1819 0-0.08268 0.066146-0.1819 0.148828-0.23978 0.099219-0.05787 0.223242-0.06614 0.289388-0.06614 0.074414 0 0.264583 0.00827 0.347265 0.13229z"
       id="path84" />
    <path
       d="m97.8018 126.858c0.024804-0.04961 0.024804-0.05788 0.024804-0.06615 0-0.05787-0.049609-0.09095-0.09095-0.09095-0.057878 0-0.074414 0.04135-0.099219 0.09095l-1.37253 3.43132c-0.024805 0.04961-0.024805 0.05788-0.024805 0.06615 0 0.05787 0.04961 0.09095 0.090951 0.09095 0.066146 0 0.082682-0.04135 0.099219-0.09095z"
       id="path86" />
    <path
       d="m100.069 128.859v-0.13229h-0.41341v-1.64538c0-0.07441 0-0.10748-0.074414-0.10748-0.049609 0-0.066145 0-0.099218 0.05787l-1.2237 1.69499v0.13229h1.09141v0.29766c0 0.13229 0 0.17363-0.305925 0.17363h-0.099218v0.13229c0.190169-0.00827 0.421679-0.01653 0.553971-0.01653 0.14056 0 0.37207 0.00826 0.562234 0.01653v-0.13229h-0.099213c-0.305925 0-0.305925-0.04134-0.305925-0.17363v-0.29766zm-0.69453-1.48001v1.34772h-0.975651z"
       id="path88" />
    <path
       d="m88.6007 151.16c-0.016537 0.08269-0.04961 0.20671-0.04961 0.23151 0 0.09095 0.074414 0.14056 0.157097 0.14056 0.066146 0 0.157096-0.04134 0.198437-0.14882 0-0.00827 0.066146-0.25632 0.099219-0.38861l0.115755-0.47129c0.024805-0.12402 0.057878-0.23978 0.090951-0.35553 0.016536-0.09095 0.057877-0.24805 0.066145-0.26459 0.074415-0.16536 0.355534-0.64492 0.859896-0.64492 0.239779 0 0.28112 0.19844 0.28112 0.37207 0 0.13229-0.033073 0.28112-0.074414 0.43822l-0.148828 0.61185-0.107487 0.39687c-0.016537 0.10749-0.066146 0.28939-0.066146 0.31419 0 0.09095 0.074414 0.14056 0.148828 0.14056 0.165365 0 0.198438-0.13229 0.239779-0.29765 0.074414-0.29766 0.272852-1.0666 0.314193-1.27331 0.016536-0.06615 0.297656-0.7028 0.876432-0.7028 0.223242 0 0.28112 0.1819 0.28112 0.37207 0 0.29766-0.223243 0.90124-0.330729 1.18236-0.041341 0.12402-0.066146 0.1819-0.066146 0.28939 0 0.24804 0.181901 0.42994 0.429948 0.42994 0.496093 0 0.694531-0.76894 0.694531-0.81028 0-0.05788-0.049609-0.05788-0.066146-0.05788-0.049609 0-0.049609 0.01654-0.074414 0.09922-0.082682 0.28112-0.248047 0.65319-0.537435 0.65319-0.09095 0-0.132292-0.04961-0.132292-0.17363 0-0.1323 0.04961-0.25632 0.099219-0.37207 0.099219-0.28112 0.322461-0.8599 0.322461-1.16582 0-0.339-0.214974-0.56224-0.611849-0.56224-0.388607 0-0.661458 0.23151-0.859895 0.51263 0-0.06615-0.016537-0.24805-0.165365-0.37207-0.132292-0.11576-0.297656-0.14056-0.429948-0.14056-0.479558 0-0.735873 0.33899-0.826823 0.46302-0.024805-0.30593-0.248047-0.46302-0.487826-0.46302-0.239778 0-0.338997 0.2067-0.388607 0.29765-0.09095 0.19017-0.157096 0.4961-0.157096 0.51263 0 0.05788 0.04961 0.05788 0.057878 0.05788 0.057877 0 0.057877-0.00827 0.09095-0.12402 0.090951-0.37207 0.198438-0.62839 0.388607-0.62839 0.082682 0 0.157097 0.04134 0.157097 0.23978 0 0.11576-0.016537 0.17363-0.082683 0.44648z"
       id="path90" />
    <path
       d="m94.3305 151.829c-0.024805 0.07441-0.057878 0.21497-0.057878 0.21497-0.074414 0.11576-0.223242 0.3142-0.446484 0.3142-0.256315 0-0.256315-0.23978-0.256315-0.30593 0-0.21497 0.099218-0.47955 0.206705-0.75241 0.024805-0.07441 0.04961-0.12402 0.04961-0.1819 0-0.19843-0.165365-0.32246-0.347266-0.32246-0.37207 0-0.537435 0.50436-0.537435 0.57051 0 0.04134 0.049609 0.04134 0.066146 0.04134 0.049609 0 0.049609-0.01654 0.066146-0.05788 0.082682-0.29765 0.248047-0.44648 0.388607-0.44648 0.066146 0 0.09095 0.04134 0.09095 0.12402 0 0.09095-0.024804 0.16537-0.066146 0.24805-0.198437 0.51263-0.198437 0.62012-0.198437 0.71934 0 0.05787 0 0.23151 0.14056 0.34726 0.107487 0.09095 0.248046 0.11576 0.380338 0.11576 0.23151 0 0.355534-0.12403 0.479558-0.23978 0.082682 0.23978 0.32246 0.23978 0.37207 0.23978 0.124023 0 0.223242-0.06615 0.289388-0.19017 0.082682-0.14883 0.132292-0.35554 0.132292-0.37207 0-0.04961-0.04961-0.04961-0.057878-0.04961-0.057878 0-0.057878 0.01653-0.082682 0.11575-0.04961 0.17364-0.115756 0.39688-0.272852 0.39688-0.090951 0-0.124023-0.08269-0.124023-0.1819 0-0.05788 0.033072-0.19844 0.057877-0.28939 0.024805-0.09922 0.066146-0.24805 0.082683-0.33073l0.082682-0.33073c0.024804-0.09095 0.066145-0.25632 0.066145-0.27285 0-0.07442-0.057877-0.11576-0.124023-0.11576-0.132292 0-0.165364 0.10749-0.190169 0.22324z"
       id="path92" />
    <path
       d="m96.8468 151.036c-0.090951 0.0248-0.157097 0.09922-0.157097 0.17363 0 0.09095 0.074414 0.12403 0.124024 0.12403 0.041341 0 0.1819-0.02481 0.1819-0.21498 0-0.23978-0.264583-0.32246-0.496093-0.32246-0.570508 0-0.677995 0.42995-0.677995 0.53744 0 0.14056 0.082682 0.23151 0.132292 0.27285 0.09095 0.07441 0.157096 0.09095 0.413411 0.13229 0.082683 0.01654 0.314193 0.05788 0.314193 0.23978 0 0.06614-0.041341 0.2067-0.190169 0.29765-0.148829 0.08269-0.33073 0.08269-0.372071 0.08269-0.148828 0-0.355534-0.03308-0.446484-0.1571 0.124023-0.01654 0.206706-0.10749 0.206706-0.2067 0-0.09096-0.066146-0.14057-0.140561-0.14057-0.107486 0-0.214973 0.09096-0.214973 0.24805 0 0.22324 0.23151 0.35554 0.587044 0.35554 0.686263 0 0.810286-0.46302 0.810286-0.60359 0-0.33899-0.37207-0.40514-0.51263-0.42994-0.033073-0.00827-0.124023-0.02481-0.148828-0.03308-0.132292-0.0248-0.198437-0.09921-0.198437-0.1819 0-0.08268 0.066145-0.1819 0.148828-0.23978 0.099218-0.05787 0.223242-0.06614 0.289388-0.06614 0.074414 0 0.264583 0.00827 0.347266 0.13229z"
       id="path94" />
    <path
       d="m99.093 149.82c0.024805-0.04961 0.024805-0.05788 0.024805-0.06614 0-0.05788-0.04961-0.09096-0.090951-0.09096-0.057878 0-0.074414 0.04135-0.099219 0.09096l-1.37253 3.43131c-0.024805 0.04961-0.024805 0.05788-0.024805 0.06615 0 0.05787 0.04961 0.09095 0.090951 0.09095 0.066146 0 0.082682-0.04134 0.099219-0.09095z"
       id="path96" />
    <path
       d="m101.361 151.821v-0.13229h-0.41341v-1.64538c0-0.07441 0-0.10748-0.07441-0.10748-0.04961 0-0.06615 0-0.09922 0.05787l-1.2237 1.69499v0.13229h1.09141v0.29766c0 0.13229 0 0.17363-0.30593 0.17363h-0.09922v0.13229c0.19017-0.00827 0.42168-0.01653 0.55397-0.01653 0.14056 0 0.37207 0.00826 0.56224 0.01653v-0.13229h-0.09922c-0.30592 0-0.30592-0.04134-0.30592-0.17363v-0.29766zm-0.69453-1.48001v1.34772h-0.975651z"
       id="path98" />
    <path
       d="m85.518 160.14c-0.09095 0-0.157096 0-0.23151 0.06614-0.090951 0.08269-0.099219 0.17364-0.099219 0.20671 0 0.13229 0.099219 0.19017 0.198438 0.19017 0.148828 0 0.289388-0.13229 0.289388-0.339 0-0.25631-0.248047-0.45475-0.620118-0.45475-0.711067 0-1.41387 0.75241-1.41387 1.49655 0 0.47956 0.305925 0.89297 0.859896 0.89297 0.752409 0 1.19062-0.56224 1.19062-0.62012 0-0.03307-0.024805-0.07441-0.057878-0.07441-0.033072 0-0.041341 0.01653-0.074413 0.05787-0.413412 0.5209-0.992188 0.5209-1.05007 0.5209-0.330729 0-0.479557-0.25631-0.479557-0.57877 0-0.21498 0.107487-0.72761 0.289388-1.05007 0.165365-0.30592 0.454753-0.52916 0.744141-0.52916 0.173632 0 0.380338 0.06614 0.454752 0.21497z"
       id="path100" />
    <path
       d="m86.6177 161.477h0.37207c0.074414 0 0.115755 0 0.115755-0.08269 0-0.0496-0.041341-0.0496-0.107487-0.0496h-0.347265l0.132291-0.54571c0.008269-0.01653 0.016537-0.04134 0.016537-0.04961 0-0.07441-0.057878-0.12402-0.132292-0.12402-0.09095 0-0.14056 0.06614-0.173633 0.1571-0.024804 0.09921 0.024805-0.08269-0.140559 0.56224h-0.372071c-0.066146 0-0.115755 0-0.115755 0.08268 0 0.04961 0.041341 0.04961 0.107487 0.04961h0.347266l-0.214974 0.86816c-0.024805 0.09095-0.057878 0.22324-0.057878 0.27285 0 0.21498 0.190169 0.34727 0.396875 0.34727 0.413411 0 0.644922-0.51263 0.644922-0.56224s-0.04961-0.04961-0.057878-0.04961c-0.049609 0-0.049609 0.00827-0.082682 0.07441-0.099219 0.23151-0.289388 0.43822-0.487826 0.43822-0.082682 0-0.132291-0.04961-0.132291-0.1819 0-0.03308 0.016536-0.11576 0.024805-0.14883z"
       id="path102" />
    <path
       d="m103.474 159.037s0-0.05788-0.06614-0.05788c-0.12403 0-0.50436 0.04134-0.64492 0.05788-0.04134 0-0.09922 0.00827-0.09922 0.09922 0 0.06615 0.04961 0.06615 0.12402 0.06615 0.25632 0 0.26458 0.03307 0.26458 0.09095l-0.01653 0.10748-0.76068 3.03444c-0.0248 0.07442-0.0248 0.08269-0.0248 0.11576 0 0.12402 0.10748 0.14883 0.15709 0.14883 0.06615 0 0.14056-0.04961 0.17364-0.10749 0.0248-0.04961 0.26458-1.02526 0.29765-1.15755 0.1819 0.01653 0.61185 0.09921 0.61185 0.44648 0 0.04134 0 0.05788-0.01654 0.11576-0.00826 0.05788-0.01653 0.12402-0.01653 0.1819 0 0.30592 0.2067 0.5209 0.47956 0.5209 0.15709 0 0.30592-0.08268 0.42167-0.28112 0.1323-0.23151 0.19017-0.5209 0.19017-0.52917 0-0.05788-0.04961-0.05788-0.06614-0.05788-0.04961 0-0.05788 0.02481-0.07442 0.09922-0.10748 0.38034-0.22324 0.65319-0.45475 0.65319-0.10749 0-0.17363-0.05788-0.17363-0.24805 0-0.09095 0.0248-0.21497 0.04134-0.29765 0.0248-0.09095 0.0248-0.10749 0.0248-0.16537 0-0.339-0.33072-0.48782-0.78548-0.55397 0.16537-0.09095 0.339-0.25631 0.45476-0.3886 0.25631-0.28113 0.49609-0.50437 0.7524-0.50437 0.03308 0 0.04135 0 0.04961 0.00827 0.06615 0.00827 0.06615 0.00827 0.11576 0.04134 0.00827 0 0.00827 0.00827 0.01654 0.01654-0.24805 0.01653-0.29766 0.22324-0.29766 0.28939 0 0.08268 0.05788 0.1819 0.19844 0.1819s0.28938-0.11576 0.28938-0.32246c0-0.1571-0.12402-0.33073-0.35553-0.33073-0.14883 0-0.38861 0.04134-0.76894 0.46302-0.18191 0.19844-0.38861 0.41341-0.58705 0.48783z"
       id="path104" />
    <path
       d="m105.614 161.976h0.37207c0.07441 0 0.11575 0 0.11575-0.08269 0-0.04961-0.04134-0.04961-0.10748-0.04961h-0.34727l0.13229-0.5457c0.00827-0.01654 0.01654-0.04134 0.01654-0.04961 0-0.07441-0.05788-0.12402-0.13229-0.12402-0.09095 0-0.14056 0.06615-0.17364 0.15709-0.0248 0.09922 0.02481-0.08268-0.14056 0.56224h-0.37207c-0.06614 0-0.11575 0-0.11575 0.08269 0 0.04961 0.04134 0.04961 0.10749 0.04961h0.34726l-0.21497 0.86816c-0.02481 0.09095-0.05788 0.22324-0.05788 0.27285 0 0.21498 0.19017 0.34727 0.39687 0.34727 0.41342 0 0.64493-0.51263 0.64493-0.56224s-0.04961-0.04961-0.05788-0.04961c-0.04961 0-0.04961 0.00827-0.08268 0.07441-0.09922 0.23151-0.28939 0.43822-0.48783 0.43822-0.08268 0-0.13229-0.04961-0.13229-0.1819 0-0.03308 0.01653-0.11576 0.0248-0.14883z"
       id="path106" />
    <path
       d="m72.3219 126.445c0.28112-0.30593 0.438217-0.43822 0.628386-0.60358 0 0 0.322461-0.28112 0.51263-0.47129 0.504362-0.48783 0.620117-0.74414 0.620117-0.76895 0-0.04961-0.049609-0.04961-0.057877-0.04961-0.041341 0-0.04961 0.00827-0.082683 0.05788-0.157096 0.25632-0.264583 0.339-0.388606 0.339-0.132292 0-0.19017-0.08268-0.272852-0.17363-0.099219-0.11576-0.190169-0.22325-0.363802-0.22325-0.396875 0-0.636654 0.48783-0.636654 0.60359 0 0.0248 0.016537 0.05787 0.057878 0.05787 0.049609 0 0.057878-0.0248 0.074414-0.05787 0.099219-0.24805 0.405143-0.24805 0.446484-0.24805 0.107487 0 0.206706 0.03307 0.33073 0.07441 0.214974 0.08268 0.272851 0.08268 0.405143 0.08268-0.190169 0.22325-0.628386 0.60359-0.727604 0.68627l-0.479558 0.44648c-0.355533 0.35554-0.545703 0.65319-0.545703 0.69453 0 0.04961 0.057878 0.04961 0.066146 0.04961 0.041341 0 0.049609-0.00827 0.082682-0.06614 0.124024-0.19017 0.28112-0.33073 0.454753-0.33073 0.115755 0 0.173633 0.04961 0.305924 0.19844 0.082683 0.11575 0.181901 0.19843 0.330729 0.19843 0.529167 0 0.835092-0.66972 0.835092-0.81028 0-0.02481-0.024805-0.05788-0.066146-0.05788-0.049609 0-0.057878 0.03307-0.074414 0.07441-0.124024 0.339-0.463021 0.43822-0.636654 0.43822-0.099218 0-0.198437-0.03307-0.305924-0.06615-0.181901-0.06614-0.264584-0.09095-0.372071-0.09095-0.008268 0-0.09095 0-0.14056 0.01654z"
       id="path108" />
    <path
       d="m75.6581 126.285c-0.090951 0.0248-0.157096 0.09922-0.157096 0.17363 0 0.09095 0.074413 0.12402 0.124023 0.12402 0.041341 0 0.181901-0.0248 0.181901-0.21497 0-0.23978-0.264583-0.32246-0.496094-0.32246-0.570507 0-0.677994 0.42995-0.677994 0.53743 0 0.14056 0.082682 0.23151 0.132291 0.27285 0.090951 0.07442 0.157097 0.09095 0.413411 0.1323 0.082683 0.01653 0.314194 0.05787 0.314194 0.23977 0 0.06615-0.041342 0.20671-0.19017 0.29766-0.148828 0.08268-0.330729 0.08268-0.37207 0.08268-0.148829 0-0.355534-0.03307-0.446485-0.15709 0.124024-0.01654 0.206706-0.10749 0.206706-0.20671 0-0.09095-0.066146-0.14056-0.14056-0.14056-0.107487 0-0.214974 0.09095-0.214974 0.24805 0 0.22324 0.231511 0.35553 0.587045 0.35553 0.686262 0 0.810286-0.46302 0.810286-0.60358 0-0.339-0.37207-0.40514-0.51263-0.42995-0.033073-0.00827-0.124023-0.0248-0.148828-0.03307-0.132292-0.0248-0.198438-0.09922-0.198438-0.1819s0.066146-0.1819 0.148828-0.23978c0.099219-0.05788 0.223242-0.06615 0.289388-0.06615 0.074414 0 0.264583 0.00827 0.347266 0.1323z"
       id="path110" />
    <path
       d="m70.2438 149.64c0.28112-0.30593 0.438216-0.43822 0.628385-0.60358 0 0 0.322461-0.28112 0.51263-0.47129 0.504363-0.48783 0.620118-0.74414 0.620118-0.76895 0-0.04961-0.04961-0.04961-0.057878-0.04961-0.041341 0-0.049609 0.00827-0.082682 0.05788-0.157096 0.25632-0.264584 0.339-0.388607 0.339-0.132292 0-0.190169-0.08268-0.272852-0.17363-0.099218-0.11576-0.190169-0.22325-0.363802-0.22325-0.396875 0-0.636653 0.48783-0.636653 0.60358 0 0.02481 0.016536 0.05788 0.057877 0.05788 0.04961 0 0.057878-0.0248 0.074414-0.05788 0.099219-0.24804 0.405144-0.24804 0.446485-0.24804 0.107487 0 0.206705 0.03307 0.330729 0.07441 0.214974 0.08268 0.272851 0.08268 0.405143 0.08268-0.190169 0.22325-0.628385 0.60358-0.727604 0.68627l-0.479557 0.44648c-0.355534 0.35553-0.545704 0.65319-0.545704 0.69453 0 0.04961 0.057878 0.04961 0.066146 0.04961 0.041342 0 0.04961-0.00827 0.082683-0.06614 0.124023-0.19017 0.281119-0.33073 0.454752-0.33073 0.115756 0 0.173633 0.04961 0.305925 0.19843 0.082682 0.11576 0.181901 0.19844 0.330729 0.19844 0.529167 0 0.835091-0.66973 0.835091-0.81028 0-0.02481-0.024805-0.05788-0.066146-0.05788-0.049609 0-0.057877 0.03307-0.074414 0.07441-0.124023 0.339-0.463021 0.43822-0.636653 0.43822-0.099219 0-0.198438-0.03308-0.305925-0.06615-0.181901-0.06614-0.264583-0.09095-0.37207-0.09095-0.008269 0-0.090951 0-0.14056 0.01654z"
       id="path112" />
    <path
       d="m73.5552 150.274c-0.024805 0.07441-0.057878 0.21497-0.057878 0.21497-0.074414 0.11575-0.223242 0.31419-0.446484 0.31419-0.256315 0-0.256315-0.23978-0.256315-0.30592 0-0.21498 0.099218-0.47956 0.206705-0.75241 0.024805-0.07442 0.04961-0.12402 0.04961-0.1819 0-0.19844-0.165365-0.32246-0.347266-0.32246-0.37207 0-0.537435 0.50436-0.537435 0.5705 0 0.04135 0.04961 0.04135 0.066146 0.04135 0.049609 0 0.049609-0.01654 0.066146-0.05788 0.082682-0.29766 0.248047-0.44649 0.388606-0.44649 0.066146 0 0.090951 0.04134 0.090951 0.12403 0 0.09095-0.024805 0.16536-0.066146 0.24804-0.198437 0.51263-0.198437 0.62012-0.198437 0.71934 0 0.05788 0 0.23151 0.14056 0.34727 0.107487 0.09095 0.248047 0.11575 0.380338 0.11575 0.231511 0 0.355534-0.12402 0.479557-0.23978 0.082683 0.23978 0.322461 0.23978 0.372071 0.23978 0.124023 0 0.223242-0.06614 0.289388-0.19017 0.082682-0.14883 0.132291-0.35553 0.132291-0.37207 0-0.04961-0.049609-0.04961-0.057877-0.04961-0.057878 0-0.057878 0.01654-0.082682 0.11576-0.04961 0.17363-0.115756 0.39687-0.272852 0.39687-0.09095 0-0.124023-0.08268-0.124023-0.1819 0-0.05788 0.033073-0.19844 0.057877-0.28939 0.024805-0.09922 0.066146-0.24804 0.082682-0.33073l0.082683-0.33073c0.024804-0.09095 0.066146-0.25631 0.066146-0.27285 0-0.07441-0.057878-0.11575-0.124024-0.11575-0.132291 0-0.165364 0.10748-0.190169 0.22324z"
       id="path114" />
    <path
       d="m76.0729 149.48c-0.090951 0.0248-0.157097 0.09921-0.157097 0.17363 0 0.09095 0.074414 0.12402 0.124024 0.12402 0.041341 0 0.181901-0.0248 0.181901-0.21497 0-0.23978-0.264584-0.32246-0.496094-0.32246-0.570508 0-0.677995 0.42994-0.677995 0.53743 0 0.14056 0.082682 0.23151 0.132292 0.27285 0.09095 0.07442 0.157096 0.09095 0.413411 0.13229 0.082683 0.01654 0.314193 0.05788 0.314193 0.23978 0 0.06615-0.041341 0.20671-0.190169 0.29766-0.148829 0.08268-0.33073 0.08268-0.372071 0.08268-0.148828 0-0.355534-0.03307-0.446484-0.15709 0.124023-0.01654 0.206706-0.10749 0.206706-0.20671 0-0.09095-0.066146-0.14056-0.14056-0.14056-0.107487 0-0.214974 0.09095-0.214974 0.24805 0 0.22324 0.23151 0.35553 0.587044 0.35553 0.686263 0 0.810286-0.46302 0.810286-0.60358 0-0.339-0.37207-0.40514-0.51263-0.42995-0.033073-0.00827-0.124023-0.0248-0.148828-0.03307-0.132292-0.02481-0.198437-0.09922-0.198437-0.1819s0.066145-0.1819 0.148828-0.23978c0.099218-0.05788 0.223242-0.06615 0.289388-0.06615 0.074414 0 0.264583 0.00827 0.347266 0.1323z"
       id="path116" />
    <path
       d="m72.1565 170.152c0.28112-0.30593 0.438216-0.43822 0.628385-0.60359 0 0 0.322461-0.28111 0.51263-0.47129 0.504363-0.48782 0.620118-0.74413 0.620118-0.76894 0-0.04961-0.04961-0.04961-0.057878-0.04961-0.041341 0-0.049609 0.00827-0.082682 0.05788-0.157096 0.25632-0.264584 0.339-0.388607 0.339-0.132292 0-0.190169-0.08268-0.272852-0.17364-0.099218-0.11575-0.190169-0.22324-0.363802-0.22324-0.396875 0-0.636653 0.48783-0.636653 0.60358 0 0.02481 0.016536 0.05788 0.057877 0.05788 0.04961 0 0.057878-0.0248 0.074414-0.05788 0.099219-0.24805 0.405144-0.24805 0.446485-0.24805 0.107487 0 0.206705 0.03308 0.330729 0.07442 0.214974 0.08268 0.272851 0.08268 0.405143 0.08268-0.190169 0.22324-0.628385 0.60358-0.727604 0.68627l-0.479557 0.44648c-0.355534 0.35553-0.545703 0.65319-0.545703 0.69453 0 0.04961 0.057877 0.04961 0.066145 0.04961 0.041342 0 0.04961-0.00827 0.082683-0.06615 0.124023-0.19016 0.281119-0.33072 0.454752-0.33072 0.115756 0 0.173633 0.0496 0.305925 0.19843 0.082682 0.11576 0.181901 0.19844 0.330729 0.19844 0.529167 0 0.835091-0.66973 0.835091-0.81029 0-0.0248-0.024805-0.05787-0.066146-0.05787-0.049609 0-0.057877 0.03307-0.074414 0.07441-0.124023 0.339-0.463021 0.43822-0.636653 0.43822-0.099219 0-0.198438-0.03308-0.305925-0.06615-0.181901-0.06614-0.264583-0.09095-0.37207-0.09095-0.008269 0-0.090951 0-0.14056 0.01654z"
       id="path118" />
    <path
       d="m75.807 170.207c0-0.40515-0.049609-0.7028-0.214974-0.95912-0.115755-0.16536-0.347266-0.31419-0.636654-0.31419-0.859895 0-0.859895 1.00872-0.859895 1.27331 0 0.26458 0 1.2485 0.859895 1.2485 0.851628 0 0.851628-0.98392 0.851628-1.2485zm-0.851628 1.14101c-0.173633 0-0.396875-0.09922-0.471289-0.39687-0.049609-0.21498-0.049609-0.5209-0.049609-0.79375s0-0.55397 0.049609-0.75241c0.082683-0.28939 0.314193-0.37207 0.471289-0.37207 0.198438 0 0.388607 0.12402 0.454753 0.339 0.057878 0.19843 0.066146 0.46302 0.066146 0.78548 0 0.27285 0 0.5457-0.049609 0.77721-0.074415 0.339-0.322461 0.41341-0.47129 0.41341z"
       id="path120" />
    <path
       d="m108.753 130.309s0-0.05788-0.06615-0.05788c-0.12402 0-0.50436 0.04134-0.64492 0.05788-0.04134 0-0.09922 0.00827-0.09922 0.09922 0 0.06614 0.04961 0.06614 0.12403 0.06614 0.25631 0 0.26458 0.03308 0.26458 0.09095l-0.01654 0.10749-0.76067 3.03444c-0.02481 0.07441-0.02481 0.08268-0.02481 0.11576 0 0.12402 0.10749 0.14882 0.1571 0.14882 0.06614 0 0.14056-0.04961 0.17363-0.10748 0.0248-0.04961 0.26458-1.02526 0.29766-1.15756 0.1819 0.01654 0.61184 0.09922 0.61184 0.44649 0 0.04134 0 0.05788-0.01653 0.11575-0.00827 0.05788-0.01654 0.12403-0.01654 0.18191 0 0.30592 0.20671 0.52089 0.47956 0.52089 0.1571 0 0.30593-0.08268 0.42168-0.28112 0.13229-0.23151 0.19017-0.52089 0.19017-0.52916 0-0.05788-0.04961-0.05788-0.06615-0.05788-0.04961 0-0.05788 0.0248-0.07441 0.09922-0.10749 0.38034-0.22324 0.65319-0.45476 0.65319-0.10748 0-0.17363-0.05788-0.17363-0.24805 0-0.09095 0.02481-0.21497 0.04134-0.29766 0.02481-0.09095 0.02481-0.10748 0.02481-0.16536 0-0.339-0.33073-0.48782-0.78548-0.55397 0.16536-0.09095 0.33899-0.25632 0.45475-0.38861 0.25632-0.28112 0.4961-0.50436 0.75241-0.50436 0.03307 0 0.04134 0 0.04961 0.00827 0.06614 0.00827 0.06614 0.00827 0.11575 0.04134 0.00827 0 0.00827 0.00827 0.01654 0.01654-0.24805 0.01653-0.29766 0.22324-0.29766 0.28938 0 0.08269 0.05788 0.18191 0.19844 0.18191s0.28939-0.11576 0.28939-0.32247c0-0.15709-0.12403-0.33072-0.35554-0.33072-0.14882 0-0.3886 0.04134-0.76894 0.46302-0.1819 0.19843-0.38861 0.41341-0.58705 0.48782z"
       id="path122" />
    <path
       d="m111.571 133.314c-0.09095 0.0248-0.1571 0.09922-0.1571 0.17363 0 0.09095 0.07441 0.12403 0.12402 0.12403 0.04135 0 0.1819-0.02481 0.1819-0.21498 0-0.23978-0.26458-0.32246-0.49609-0.32246-0.57051 0-0.67799 0.42995-0.67799 0.53744 0 0.14056 0.08268 0.23151 0.13229 0.27285 0.09095 0.07441 0.15709 0.09095 0.41341 0.13229 0.08268 0.01654 0.31419 0.05788 0.31419 0.23978 0 0.06614-0.04134 0.2067-0.19017 0.29765-0.14883 0.08269-0.33073 0.08269-0.37207 0.08269-0.14883 0-0.35553-0.03308-0.44648-0.1571 0.12402-0.01654 0.2067-0.10749 0.2067-0.20671 0-0.09095-0.06614-0.14056-0.14056-0.14056-0.10748 0-0.21497 0.09095-0.21497 0.24805 0 0.22324 0.23151 0.35553 0.58704 0.35553 0.68627 0 0.81029-0.46302 0.81029-0.60358 0-0.33899-0.37207-0.40514-0.51263-0.42994-0.03307-0.00827-0.12402-0.02481-0.14883-0.03308-0.13229-0.0248-0.19843-0.09922-0.19843-0.1819s0.06614-0.1819 0.14882-0.23978c0.09922-0.05787 0.22324-0.06614 0.28939-0.06614 0.07441 0 0.26458 0.00827 0.34727 0.13229z"
       id="path124" />
    <path
       d="m113.983 135.179c0-0.01653 0-0.0248-0.09095-0.11575-0.65319-0.66146-0.82682-1.66191-0.82682-2.4722 0-0.91777 0.19844-1.83555 0.85163-2.48874 0.06614-0.06614 0.06614-0.07441 0.06614-0.09095 0-0.04134-0.01653-0.05788-0.04961-0.05788-0.05787 0-0.52916 0.36381-0.84335 1.03353-0.26459 0.57878-0.33073 1.16582-0.33073 1.60404 0 0.41341 0.05787 1.05006 0.34726 1.65365 0.32246 0.64492 0.76895 0.99218 0.82682 0.99218 0.03308 0 0.04961-0.01653 0.04961-0.05788z"
       id="path126" />
    <path
       d="m117.008 130.309s0-0.05788-0.06615-0.05788c-0.08268 0-0.57877 0.04961-0.66972 0.05788-0.04135 0.00827-0.07442 0.03307-0.07442 0.09922 0 0.06614 0.04961 0.06614 0.12402 0.06614 0.25632 0 0.26459 0.03308 0.26459 0.09095l-0.01654 0.10749-0.31419 1.2485c-0.09922-0.19844-0.24805-0.33899-0.48783-0.33899-0.61185 0-1.26504 0.77721-1.26504 1.54615 0 0.4961 0.28939 0.84336 0.69453 0.84336 0.10749 0 0.37208-0.0248 0.68627-0.39687 0.04134 0.22324 0.23151 0.39687 0.47956 0.39687 0.19016 0 0.30592-0.12402 0.39687-0.28938 0.08268-0.19017 0.1571-0.51263 0.1571-0.5209 0-0.05788-0.04961-0.05788-0.06615-0.05788-0.04961 0-0.05788 0.0248-0.07441 0.09922-0.09095 0.339-0.1819 0.65319-0.39688 0.65319-0.14883 0-0.1571-0.14056-0.1571-0.23978 0-0.13229 0.00827-0.16536 0.02481-0.25632zm-1.09141 2.97656c-0.03307 0.09922-0.03307 0.10749-0.10749 0.19844-0.23151 0.28939-0.44648 0.37207-0.59531 0.37207-0.26458 0-0.339-0.28939-0.339-0.4961 0-0.26458 0.16537-0.9095 0.28939-1.15755 0.16537-0.30592 0.39688-0.50436 0.61185-0.50436 0.339 0 0.41341 0.42995 0.41341 0.46302s-0.00827 0.06615-0.01653 0.09095z"
       id="path128" />
    <path
       d="m118.107 133.905c0-0.34727-0.13229-0.55397-0.339-0.55397-0.17363 0-0.28112 0.13229-0.28112 0.28112 0 0.14056 0.10749 0.28112 0.28112 0.28112 0.05788 0 0.13229-0.02481 0.18191-0.06615 0.01653-0.01654 0.0248-0.01654 0.0248-0.01654 0.00827 0 0.00827 0 0.00827 0.07442 0 0.39687-0.1819 0.71107-0.35553 0.8847-0.05788 0.05788-0.05788 0.06614-0.05788 0.08268 0 0.04134 0.0248 0.05788 0.04961 0.05788 0.05787 0 0.48782-0.40515 0.48782-1.02526z"
       id="path130" />
    <path
       d="m120.211 133.5c-0.04961 0.20671-0.05788 0.24805-0.47956 0.24805-0.08268 0-0.14056 0-0.14056 0.09922 0 0.06615 0.04134 0.06615 0.14056 0.06615h1.75286c1.09141 0 2.13321-1.11622 2.13321-2.2655 0-0.74414-0.44649-1.33945-1.24024-1.33945h-1.7694c-0.09922 0-0.1571 0-0.1571 0.09922 0 0.06614 0.04135 0.06614 0.14883 0.06614 0.06615 0 0.16537 0.00827 0.22324 0.00827 0.09095 0.01654 0.11576 0.02481 0.11576 0.09095 0 0.01654 0 0.03307-0.01654 0.09922zm1.14101-2.82773c0.04961-0.1819 0.05788-0.19844 0.28939-0.19844h0.56224c0.51263 0 0.95085 0.28112 0.95085 0.97565 0 0.25632-0.09922 1.12448-0.55398 1.70326-0.14882 0.19844-0.56224 0.59531-1.21543 0.59531h-0.71106c-0.04961-0.00827-0.06615-0.01654-0.06615-0.05788 0-0.01653 0-0.0248 0.02481-0.11575z"
       id="path132" />
    <path
       d="m124.959 133.905c0-0.34727-0.13229-0.55397-0.339-0.55397-0.17363 0-0.28112 0.13229-0.28112 0.28112 0 0.14056 0.10749 0.28112 0.28112 0.28112 0.05788 0 0.13229-0.02481 0.1819-0.06615 0.01654-0.01654 0.02481-0.01654 0.02481-0.01654 0.00826 0 0.00826 0 0.00826 0.07442 0 0.39687-0.1819 0.71107-0.35553 0.8847-0.05788 0.05788-0.05788 0.06614-0.05788 0.08268 0 0.04134 0.02481 0.05788 0.04961 0.05788 0.05788 0 0.48783-0.40515 0.48783-1.02526z"
       id="path134" />
    <path
       d="m126.468 134.558c-0.04134 0.1819-0.05788 0.21497-0.28939 0.21497-0.05787 0-0.11576 0-0.11576 0.09922 0 0.04134 0.02481 0.06615 0.06615 0.06615 0.14056 0 0.29766-0.01654 0.43822-0.01654 0.1819 0 0.35553 0.01654 0.52916 0.01654 0.02481 0 0.09095 0 0.09095-0.10749 0-0.05788-0.0496-0.05788-0.12402-0.05788-0.26458 0-0.26458-0.03307-0.26458-0.08268 0-0.06615 0.22324-0.92604 0.25631-1.05833 0.06615 0.15709 0.21498 0.33899 0.48783 0.33899 0.61185 0 1.27331-0.76894 1.27331-1.54616 0-0.49609-0.30593-0.84335-0.7028-0.84335-0.26459 0-0.5209 0.19016-0.69454 0.39687-0.0496-0.28939-0.28111-0.39687-0.47128-0.39687-0.24805 0-0.34727 0.2067-0.38861 0.29765-0.09922 0.1819-0.16537 0.4961-0.16537 0.51263 0 0.05788 0.04962 0.05788 0.05788 0.05788 0.05788 0 0.05788-0.00827 0.09095-0.12402 0.09095-0.37207 0.19844-0.62839 0.38861-0.62839 0.09095 0 0.16536 0.04134 0.16536 0.23978 0 0.12402-0.01653 0.1819-0.04134 0.27285zm0.92604-2.2903c0.03307-0.14056 0.1819-0.28939 0.27285-0.37207 0.19017-0.1571 0.339-0.19844 0.42995-0.19844 0.20671 0 0.339 0.1819 0.339 0.49609 0 0.3142-0.17363 0.91778-0.27285 1.11621-0.18191 0.37208-0.42995 0.54571-0.62839 0.54571-0.34727 0-0.41341-0.43822-0.41341-0.47129 0-0.00827 0-0.01654 0.01654-0.08268z"
       id="path136" />
    <path
       d="m129.956 133.905c0-0.34727-0.13229-0.55397-0.33899-0.55397-0.17364 0-0.28112 0.13229-0.28112 0.28112 0 0.14056 0.10748 0.28112 0.28112 0.28112 0.05787 0 0.13229-0.02481 0.1819-0.06615 0.01653-0.01654 0.0248-0.01654 0.0248-0.01654 0.00827 0 0.00827 0 0.00827 0.07442 0 0.39687-0.1819 0.71107-0.35553 0.8847-0.05788 0.05788-0.05788 0.06614-0.05788 0.08268 0 0.04134 0.0248 0.05788 0.04961 0.05788 0.05788 0 0.48782-0.40515 0.48782-1.02526z"
       id="path138" />
    <path
       d="m135.211 130.863c0.05788-0.20671 0.14883-0.37207 0.57051-0.38861 0.02481 0 0.09095-0.00827 0.09095-0.10748 0 0 0-0.05788-0.06614-0.05788-0.17364 0-0.36381 0.01653-0.53744 0.01653s-0.3638-0.01653-0.53744-0.01653c-0.03307 0-0.09095 0-0.09095 0.10748 0 0.05788 0.04961 0.05788 0.09095 0.05788 0.30593 0.00827 0.36381 0.11576 0.36381 0.23151 0 0.01654-0.01654 0.09922-0.01654 0.10749l-0.59531 2.34818-1.16582-2.75332c-0.04134-0.09095-0.04134-0.09922-0.16537-0.09922h-0.71107c-0.09922 0-0.14882 0-0.14882 0.10748 0 0.05788 0.0496 0.05788 0.14882 0.05788 0.02481 0 0.35554 0 0.35554 0.04961l-0.7028 2.82774c-0.05788 0.21497-0.14883 0.38033-0.57051 0.39687-0.03307 0-0.09095 0.00827-0.09095 0.10749 0 0.03307 0.02481 0.05788 0.06615 0.05788 0.17363 0 0.35553-0.01654 0.52916-0.01654 0.1819 0 0.37207 0.01654 0.54571 0.01654 0.0248 0 0.09095 0 0.09095-0.10749 0-0.04961-0.04961-0.05788-0.10749-0.05788-0.30592-0.00827-0.34727-0.12402-0.34727-0.23151 0-0.03307 0.00827-0.06614 0.02481-0.12402l0.69453-2.77813c0.02481 0.02481 0.02481 0.04134 0.04961 0.09095l1.31465 3.10886c0.03307 0.09095 0.04961 0.09922 0.09922 0.09922 0.05788 0 0.05788-0.01654 0.08268-0.10749z"
       id="path140" />
    <path
       d="m137.015 133.298c-0.07441-0.12402-0.19843-0.22324-0.38034-0.22324-0.47128 0-0.95084 0.5209-0.95084 1.05007 0 0.3638 0.23978 0.61184 0.56224 0.61184 0.19844 0 0.37207-0.10748 0.5209-0.25631 0.06614 0.22324 0.28112 0.25631 0.38034 0.25631 0.13229 0 0.22324-0.07441 0.28938-0.19016 0.08269-0.14883 0.13229-0.35554 0.13229-0.37207 0-0.04961-0.0496-0.04961-0.05787-0.04961-0.05788 0-0.05788 0.01653-0.08269 0.11575-0.0496 0.1819-0.11575 0.39688-0.27284 0.39688-0.09096 0-0.12403-0.08269-0.12403-0.18191 0-0.05787 0.03307-0.19843 0.05788-0.28938 0.0248-0.09922 0.06615-0.24805 0.08268-0.33073l0.07441-0.28112c0.02481-0.09922 0.06615-0.27285 0.06615-0.28939 0-0.08268-0.06615-0.11576-0.12402-0.11576-0.06615 0-0.14883 0.04135-0.17364 0.14883zm-0.23151 0.94258c-0.0248 0.10749-0.10748 0.1819-0.19016 0.24805-0.03308 0.03307-0.18191 0.14883-0.339 0.14883-0.14056 0-0.27286-0.09922-0.27286-0.35554 0-0.19844 0.10749-0.60358 0.19844-0.75241 0.16537-0.29765 0.35554-0.34726 0.45475-0.34726 0.25632 0 0.33073 0.28112 0.33073 0.32246 0 0.00827-0.00826 0.04134-0.00826 0.04961z"
       id="path142" />
    <path
       d="m139.532 132.591c0-0.40514-0.05788-1.0418-0.34726-1.64538-0.3142-0.64492-0.76895-0.99219-0.81856-0.99219-0.03307 0-0.05788 0.02481-0.05788 0.05788 0 0.01654 0 0.02481 0.09922 0.12402 0.5209 0.5209 0.81856 1.35599 0.81856 2.45567 0 0.9095-0.19017 1.83555-0.84336 2.497-0.07442 0.06615-0.07442 0.07442-0.07442 0.09095 0 0.03308 0.02481 0.05788 0.05788 0.05788 0.04961 0 0.52917-0.3638 0.83509-1.03353 0.27285-0.57877 0.33073-1.16582 0.33073-1.6123z"
       id="path144" />
    <path
       d="m109.406 146.239c-0.09095 0-0.1571 0-0.23151 0.06615-0.09095 0.08268-0.09922 0.17363-0.09922 0.2067 0 0.13229 0.09922 0.19017 0.19844 0.19017 0.14883 0 0.28938-0.13229 0.28938-0.339 0-0.25631-0.24804-0.45475-0.62011-0.45475-0.71107 0-1.41387 0.75241-1.41387 1.49655 0 0.47956 0.30593 0.89297 0.8599 0.89297 0.75241 0 1.19062-0.56224 1.19062-0.62012 0-0.03307-0.0248-0.07441-0.05787-0.07441-0.03308 0-0.04135 0.01653-0.07442 0.05787-0.41341 0.5209-0.99219 0.5209-1.05006 0.5209-0.33073 0-0.47956-0.25631-0.47956-0.57877 0-0.21498 0.10749-0.72761 0.28938-1.05007 0.16537-0.30592 0.45476-0.52916 0.74415-0.52916 0.17363 0 0.38033 0.06614 0.45475 0.21497z"
       id="path146" />
    <path
       d="m111.184 147.642c-0.09095 0.02481-0.1571 0.09922-0.1571 0.17364 0 0.09095 0.07442 0.12402 0.12402 0.12402 0.04135 0 0.18191-0.02481 0.18191-0.21498 0-0.23977-0.26459-0.32246-0.4961-0.32246-0.57051 0-0.67799 0.42995-0.67799 0.53744 0 0.14056 0.08268 0.23151 0.13229 0.27285 0.09095 0.07441 0.1571 0.09095 0.41341 0.13229 0.08268 0.01654 0.31419 0.05788 0.31419 0.23978 0 0.06615-0.04134 0.20671-0.19017 0.29766-0.14882 0.08268-0.33073 0.08268-0.37207 0.08268-0.14882 0-0.35553-0.03307-0.44648-0.1571 0.12402-0.01653 0.20671-0.10748 0.20671-0.2067 0-0.09095-0.06615-0.14056-0.14056-0.14056-0.10749 0-0.21498 0.09095-0.21498 0.24804 0 0.22325 0.23151 0.35554 0.58705 0.35554 0.68626 0 0.81028-0.46302 0.81028-0.60358 0-0.339-0.37207-0.40515-0.51263-0.42995-0.03307-0.00827-0.12402-0.02481-0.14883-0.03307-0.13229-0.02481-0.19843-0.09922-0.19843-0.1819 0-0.08269 0.06614-0.18191 0.14883-0.23978 0.09921-0.05788 0.22324-0.06615 0.28938-0.06615 0.07442 0 0.26459 0.00827 0.34727 0.13229z"
       id="path148" />
    <path
       d="m113.594 149.505c0-0.01654 0-0.0248-0.09095-0.11576-0.65319-0.66145-0.82683-1.66191-0.82683-2.4722 0-0.91777 0.19844-1.83554 0.85163-2.48873 0.06615-0.06615 0.06615-0.07442 0.06615-0.09095 0-0.04134-0.01654-0.05788-0.04961-0.05788-0.05788 0-0.52917 0.3638-0.84336 1.03353-0.26459 0.57877-0.33073 1.16582-0.33073 1.60403 0 0.41342 0.05788 1.05007 0.34726 1.65365 0.32246 0.64492 0.76895 0.99219 0.82683 0.99219 0.03307 0 0.04961-0.01654 0.04961-0.05788z"
       id="path150" />
    <path
       d="m114.735 147.826c-0.04961 0.20671-0.05787 0.24805-0.47956 0.24805-0.08268 0-0.14055 0-0.14055 0.09922 0 0.06614 0.04133 0.06614 0.14055 0.06614h1.75287c1.0914 0 2.1332-1.11621 2.1332-2.26549 0-0.74414-0.44648-1.33946-1.24023-1.33946h-1.7694c-0.09922 0-0.1571 0-0.1571 0.09922 0 0.06615 0.04134 0.06615 0.14883 0.06615 0.06614 0 0.16536 0.00827 0.22324 0.00827 0.09095 0.01653 0.11576 0.0248 0.11576 0.09095 0 0.01653 0 0.03307-0.01654 0.09922zm1.14102-2.82773c0.04961-0.18191 0.05788-0.19844 0.28939-0.19844h0.56224c0.51263 0 0.95084 0.28112 0.95084 0.97565 0 0.25631-0.09922 1.12448-0.55397 1.70325-0.14883 0.19844-0.56224 0.59532-1.21543 0.59532h-0.71107c-0.04961-0.00827-0.06614-0.01654-0.06614-0.05788 0-0.01654 0-0.02481 0.0248-0.11576z"
       id="path152" />
    <path
       d="m120.224 148.047c0-0.40515-0.30593-0.64493-0.66973-0.64493-0.5457 0-1.05833 0.51263-1.05833 1.017 0 0.37207 0.26458 0.64492 0.66972 0.64492 0.52917 0 1.05834-0.47956 1.05834-1.01699zm-1.05834 0.91777c-0.1819 0-0.3638-0.11576-0.3638-0.41341 0-0.14883 0.06615-0.51263 0.21498-0.71934 0.15709-0.23151 0.37207-0.32246 0.53743-0.32246 0.19844 0 0.3638 0.13229 0.3638 0.40514 0 0.09095-0.04134 0.45476-0.2067 0.71107-0.14056 0.22324-0.35554 0.339-0.54571 0.339z"
       id="path154" />
    <path
       d="m121.683 148.231c0-0.34726-0.13229-0.55397-0.339-0.55397-0.17363 0-0.28112 0.13229-0.28112 0.28112 0 0.14056 0.10749 0.28112 0.28112 0.28112 0.05788 0 0.13229-0.0248 0.1819-0.06614 0.01654-0.01654 0.02481-0.01654 0.02481-0.01654 0.00827 0 0.00827 0 0.00827 0.07441 0 0.39688-0.1819 0.71107-0.35554 0.8847-0.05788 0.05788-0.05788 0.06615-0.05788 0.08269 0 0.04134 0.02481 0.05787 0.04962 0.05787 0.05787 0 0.48782-0.40514 0.48782-1.02526z"
       id="path156" />
    <path
       d="m123.789 147.826c-0.0496 0.20671-0.05787 0.24805-0.47955 0.24805-0.08269 0-0.14056 0-0.14056 0.09922 0 0.06614 0.04134 0.06614 0.14056 0.06614h1.75286c1.09141 0 2.1332-1.11621 2.1332-2.26549 0-0.74414-0.44648-1.33946-1.24023-1.33946h-1.7694c-0.09922 0-0.1571 0-0.1571 0.09922 0 0.06615 0.04134 0.06615 0.14883 0.06615 0.06614 0 0.16536 0.00827 0.22324 0.00827 0.09095 0.01653 0.11576 0.0248 0.11576 0.09095 0 0.01653 0 0.03307-0.01654 0.09922zm1.14102-2.82773c0.04961-0.18191 0.05788-0.19844 0.28939-0.19844h0.56224c0.51263 0 0.95084 0.28112 0.95084 0.97565 0 0.25631-0.09922 1.12448-0.55397 1.70325-0.14883 0.19844-0.56224 0.59532-1.21543 0.59532h-0.71107c-0.0496-0.00827-0.06614-0.01654-0.06614-0.05788 0-0.01654 0-0.02481 0.0248-0.11576z"
       id="path158" />
    <path
       d="m127.589 149.477c-0.0248 0.10749-0.03307 0.13229-0.17363 0.13229-0.04961 0-0.09922 0-0.09922 0.08268 0 0.04134 0.03307 0.05788 0.04961 0.05788 0.09095 0 0.21497-0.01654 0.31419-0.01654 0.12403 0 0.26459 0.01654 0.38861 0.01654 0.03307 0 0.07441-0.01654 0.07441-0.08268 0-0.05788-0.0496-0.05788-0.09922-0.05788-0.08268 0-0.18189 0-0.18189-0.04134 0-0.01654 0.03307-0.11576 0.04133-0.16536 0.04962-0.19844 0.09922-0.39688 0.14056-0.55398 0.04135 0.07442 0.1571 0.21498 0.38035 0.21498 0.44648 0 0.94257-0.4961 0.94257-1.0418 0-0.42995-0.29765-0.62012-0.5457-0.62012-0.23151 0-0.42995 0.1571-0.52917 0.26459-0.05788-0.21498-0.26458-0.26459-0.38034-0.26459-0.14056 0-0.23151 0.09922-0.28938 0.19844-0.07442 0.12402-0.1323 0.34727-0.1323 0.37207 0 0.04134 0.04961 0.04134 0.06615 0.04134 0.04961 0 0.04961-0.00827 0.07442-0.10748 0.05787-0.21498 0.13229-0.39688 0.27284-0.39688 0.09922 0 0.12403 0.08268 0.12403 0.1819 0 0.04134-0.00827 0.08268-0.01654 0.10749zm0.7028-1.62884c0.21498-0.28939 0.39688-0.339 0.51263-0.339 0.14883 0 0.27285 0.10749 0.27285 0.35553 0 0.14883-0.08268 0.52917-0.19016 0.74415-0.09922 0.1819-0.27286 0.35553-0.46302 0.35553-0.26459 0-0.33073-0.28112-0.33073-0.32246 0-0.01654 0.00826-0.04134 0.00826-0.05788z"
       id="path160" />
    <path
       d="m130.828 148.231c0-0.34726-0.13229-0.55397-0.33899-0.55397-0.17364 0-0.28113 0.13229-0.28113 0.28112 0 0.14056 0.10749 0.28112 0.28113 0.28112 0.05787 0 0.13229-0.0248 0.18189-0.06614 0.01654-0.01654 0.02481-0.01654 0.02481-0.01654 0.00827 0 0.00827 0 0.00827 0.07441 0 0.39688-0.1819 0.71107-0.35554 0.8847-0.05787 0.05788-0.05787 0.06615-0.05787 0.08269 0 0.04134 0.0248 0.05787 0.04961 0.05787 0.05788 0 0.48782-0.40514 0.48782-1.02526z"
       id="path162" />
    <path
       d="m132.934 147.826c-0.04962 0.20671-0.05788 0.24805-0.47956 0.24805-0.08268 0-0.14056 0-0.14056 0.09922 0 0.06614 0.04134 0.06614 0.14056 0.06614h1.75286c1.09141 0 2.13321-1.11621 2.13321-2.26549 0-0.74414-0.44649-1.33946-1.24024-1.33946h-1.7694c-0.09922 0-0.1571 0-0.1571 0.09922 0 0.06615 0.04134 0.06615 0.14883 0.06615 0.06615 0 0.16537 0.00827 0.22324 0.00827 0.09095 0.01653 0.11576 0.0248 0.11576 0.09095 0 0.01653 0 0.03307-0.01654 0.09922zm1.14101-2.82773c0.04961-0.18191 0.05788-0.19844 0.28939-0.19844h0.56224c0.51263 0 0.95085 0.28112 0.95085 0.97565 0 0.25631-0.09922 1.12448-0.55398 1.70325-0.14882 0.19844-0.56224 0.59532-1.21543 0.59532h-0.71106c-0.04961-0.00827-0.06615-0.01654-0.06615-0.05788 0-0.01654 0-0.02481 0.0248-0.11576z"
       id="path164" />
    <path
       d="m138.049 147.642c-0.09095 0.02481-0.1571 0.09922-0.1571 0.17364 0 0.09095 0.07442 0.12402 0.12403 0.12402 0.04134 0 0.1819-0.02481 0.1819-0.21498 0-0.23977-0.26458-0.32246-0.49609-0.32246-0.57051 0-0.678 0.42995-0.678 0.53744 0 0.14056 0.08268 0.23151 0.1323 0.27285 0.09094 0.07441 0.15709 0.09095 0.4134 0.13229 0.08269 0.01654 0.3142 0.05788 0.3142 0.23978 0 0.06615-0.04134 0.20671-0.19017 0.29766-0.14883 0.08268-0.33073 0.08268-0.37207 0.08268-0.14883 0-0.35554-0.03307-0.44649-0.1571 0.12403-0.01653 0.20671-0.10748 0.20671-0.2067 0-0.09095-0.06615-0.14056-0.14056-0.14056-0.10749 0-0.21497 0.09095-0.21497 0.24804 0 0.22325 0.23151 0.35554 0.58704 0.35554 0.68626 0 0.81029-0.46302 0.81029-0.60358 0-0.339-0.37207-0.40515-0.51263-0.42995-0.03308-0.00827-0.12403-0.02481-0.14883-0.03307-0.13229-0.02481-0.19844-0.09922-0.19844-0.1819 0-0.08269 0.06615-0.18191 0.14883-0.23978 0.09922-0.05788 0.22324-0.06615 0.28939-0.06615 0.07441 0 0.26458 0.00827 0.34726 0.13229z"
       id="path166" />
    <path
       d="m140.236 146.917c0-0.40514-0.05788-1.04179-0.34727-1.64537-0.31419-0.64493-0.76894-0.99219-0.81855-0.99219-0.03307 0-0.05788 0.0248-0.05788 0.05788 0 0.01653 0 0.0248 0.09922 0.12402 0.5209 0.5209 0.81856 1.35599 0.81856 2.45566 0 0.90951-0.19018 1.83555-0.84337 2.49701-0.07441 0.06615-0.07441 0.07441-0.07441 0.09095 0 0.03307 0.02481 0.05788 0.05788 0.05788 0.04961 0 0.52917-0.3638 0.83509-1.03353 0.27285-0.57878 0.33073-1.16582 0.33073-1.61231z"
       id="path168" />
  </g>
  <path
     d="m37.4954 9.58937-9.9701 3.38446"
     fill="none"
     stroke="#8a8a8a"
     stroke-width=".264583"
     id="path172" />
  <path
     d="m37.3694 24.1374-17.4294-4.40421"
     fill="none"
     stroke="#8a8a8a"
     stroke-width=".264583"
     id="path174" />
</svg>
